<?xml version="1.0" standalone="no"?>
<!DOCTYPE svg PUBLIC "-//W3C//DTD SVG 20010904//EN"
 "http://www.w3.org/TR/2001/REC-SVG-20010904/DTD/svg10.dtd">
<svg version="1.0" xmlns="http://www.w3.org/2000/svg"
 width="700.000000pt" height="700.000000pt" viewBox="0 0 700.000000 700.000000"
 preserveAspectRatio="xMidYMid meet">
<metadata>
Created by potrace 1.11, written by Peter Selinger 2001-2013
</metadata>
<g transform="translate(0.000000,700.000000) scale(0.100000,-0.100000)"
fill="#000000" stroke="none">
<path d="M947 6985 c-474 -80 -855 -464 -932 -939 -22 -137 -22 -4955 0 -5092
78 -479 460 -861 939 -939 137 -22 4955 -22 5092 0 416 67 764 365 898 769 59
177 56 42 56 2714 0 1708 -3 2475 -11 2525 -76 504 -462 890 -966 966 -114 17
-4973 13 -5076 -4z m2673 -1865 l0 -255 -98 98 c-53 53 -100 97 -104 97 -4 0
-9 -424 -11 -942 -3 -1040 0 -981 -68 -1177 -94 -271 -293 -492 -565 -630
-327 -164 -772 -180 -1120 -41 -315 126 -552 371 -657 680 -64 190 -61 113
-64 1358 l-3 1132 179 0 180 0 4 -1107 c4 -1204 1 -1143 60 -1305 87 -240 295
-430 545 -497 467 -125 925 84 1087 499 61 155 58 103 62 1305 l4 1100 127
128 127 127 157 -157 158 -158 0 -255z m442 -477 l128 -128 0 -127 c0 -119 1
-128 19 -128 10 0 21 7 24 14 12 30 161 138 251 181 138 67 260 96 436 102
123 4 161 2 248 -16 529 -110 902 -594 902 -1171 0 -505 -300 -954 -752 -1124
-325 -122 -800 -79 -1055 95 -79 55 -73 102 -73 -576 l0 -605 -185 0 -185 0 0
1492 0 1493 -100 -100 -100 -100 0 260 0 260 152 152 c84 84 155 153 158 153
2 0 62 -57 132 -127z"/>
<path d="M4680 4221 c-201 -44 -352 -145 -457 -308 l-33 -52 0 -594 0 -593 78
-41 c167 -90 363 -134 587 -134 100 0 149 4 210 20 313 82 551 338 622 666 23
106 20 281 -6 390 -43 180 -158 364 -298 480 -75 62 -217 135 -308 160 -94 26
-292 29 -395 6z"/>
</g>
</svg>
