<?xml version="1.0" standalone="no"?>
<!DOCTYPE svg PUBLIC "-//W3C//DTD SVG 20010904//EN"
 "http://www.w3.org/TR/2001/REC-SVG-20010904/DTD/svg10.dtd">
<svg version="1.0" xmlns="http://www.w3.org/2000/svg"
 width="386.000000pt" height="386.000000pt" viewBox="0 0 386.000000 386.000000"
 preserveAspectRatio="xMidYMid meet">
<metadata>
Created by potrace 1.11, written by Peter Selinger 2001-2013
</metadata>
<g transform="translate(0.000000,386.000000) scale(0.100000,-0.100000)"
fill="#000000" stroke="none">
<path d="M274 3671 c-2 -2 -4 -185 -4 -406 l0 -402 -129 1 c-108 1 -131 -2
-133 -14 -2 -8 -3 -100 -3 -205 l1 -190 132 -3 132 -3 1 -807 c0 -444 2 -822
4 -841 27 -261 115 -441 263 -535 145 -91 428 -114 760 -60 l32 5 0 239 0 239
-27 -6 c-16 -3 -77 -6 -138 -6 -94 0 -117 3 -159 23 -52 25 -79 60 -97 123 -8
31 -14 1008 -9 1575 l0 52 200 0 199 0 3 201 c3 172 1 202 -12 207 -8 4 -99 6
-202 6 l-188 -1 -1 56 c0 31 0 214 0 406 l1 350 -311 0 c-171 0 -313 -2 -315
-4z"/>
<path d="M3253 3633 c-55 -71 -543 -733 -543 -737 0 -2 17 0 38 4 52 12 91 19
137 26 l40 6 -1 -873 c0 -481 -4 -899 -8 -929 -14 -99 -17 -114 -37 -185 -53
-182 -172 -267 -360 -260 -194 8 -318 141 -345 370 -4 28 -10 73 -14 100 -5
28 -9 423 -9 879 -1 457 -4 832 -7 835 -6 6 -622 10 -640 4 -11 -4 -12 -1549
0 -1683 36 -413 155 -689 360 -835 169 -119 383 -176 671 -178 341 -1 602 85
764 253 158 164 250 430 276 805 2 39 5 438 5 888 1 758 3 817 18 817 26 0
232 -39 243 -45 5 -4 9 -2 9 4 0 7 -532 735 -560 764 -4 5 -21 -9 -37 -30z"/>
</g>
</svg>
